<svg id="그룹_81" data-name="그룹 81" xmlns="http://www.w3.org/2000/svg" xmlns:xlink="http://www.w3.org/1999/xlink" width="50" height="50" viewBox="0 0 50 50">
  <defs>
    <clipPath id="clip-path">
      <rect id="사각형_81" data-name="사각형 81" width="50" height="50" fill="#fff"/>
    </clipPath>
  </defs>
  <g id="그룹_79" data-name="그룹 79" transform="translate(0 0)" clip-path="url(#clip-path)">
    <path id="패스_33" data-name="패스 33" d="M24.993,0A24.992,24.992,0,1,0,49.985,24.992,24.993,24.993,0,0,0,24.993,0m.19,48.84c-16.952-.1-19.738-13.8-19.738-13.8A19.547,19.547,0,0,1,7.552,19.578a17.983,17.983,0,0,1,11.955-8.431H19.7a14.821,14.821,0,1,1,7.911,28.432,8.983,8.983,0,0,1-4.486-.34c-5.369-2.129-7.821-7.511-7.821-7.511C9.567,18.809,19.695,11.15,19.7,11.147a14.822,14.822,0,0,0-3.16,26.017v0a16.974,16.974,0,0,0,5.109,2.507h0a14.528,14.528,0,0,0,10.257-.88c1.252-.383,2.15-.713,2.15-.713a18.538,18.538,0,0,1,11.557-.554C38.676,48.967,25.182,48.839,25.182,48.839" transform="translate(0 0.001)" fill="#fff"/>
  </g>
</svg>
