<?xml version="1.0" encoding="utf-8"?>
<!-- Generator: Adobe Illustrator 25.1.0, SVG Export Plug-In . SVG Version: 6.00 Build 0)  -->
<svg version="1.1" id="레이어_1" xmlns="http://www.w3.org/2000/svg" xmlns:xlink="http://www.w3.org/1999/xlink" x="0px"
	 y="0px" viewBox="0 0 34.89 31.56" style="enable-background:new 0 0 34.89 31.56;" xml:space="preserve">
<style type="text/css">
	.st0{fill:none;stroke:#fff;stroke-width:1.44;stroke-linecap:round;stroke-linejoin:round;stroke-miterlimit:22.9256;}
	.st1{fill:none;stroke:#fff;stroke-width:1.44;stroke-miterlimit:22.9256;}
	.st2{fill:none;stroke:#fff;stroke-width:1.44;stroke-linecap:round;stroke-linejoin:round;stroke-miterlimit:22.9256;}

	.st0{
		stroke-dasharray:113;
		stroke-dashoffset:113;
		animation: anime 4s ease-in-out infinite;
	}

	.st1{
		stroke-dasharray:14;
		stroke-dashoffset:14;
		animation: anime2 4s ease-in-out infinite;
	}

	.st2{
		stroke-dasharray:16;
		stroke-dashoffset:16;
		animation: anime3 4s ease-in-out infinite;
	}

	@keyframes anime {
		from {
			stroke-dashoffset: 113;
		}
		50% {stroke-dashoffset: 0;
		}
		to {stroke-dashoffset: 113;
		}
		
	}

	@keyframes anime2 {
		from {
			stroke-dashoffset: 14;
		}
		50% {stroke-dashoffset: 0;
		}
		to {stroke-dashoffset: 14;
		}
	}

	@keyframes anime3 {
		from {
			stroke-dashoffset: 16;
		}
		50% {stroke-dashoffset: 0;
		}
		to {stroke-dashoffset: 16;
		}
	}

</style>
<g id="main">
	<g>
		<path class="st0" d="M33.95,1.29H1.07v23.4c18.43,0,23.46,0,32.88,0V1.29L33.95,1.29z"/>
		<path class="st1" d="M6.87,14c-1.2,0-2.16,0.97-2.16,2.16c0,1.2,0.97,2.16,2.16,2.16s2.16-0.97,2.16-2.16
			C9.03,14.97,8.06,14,6.87,14L6.87,14z M13.96,6.8c-1.2,0-2.16,0.97-2.16,2.16c0,1.2,0.97,2.16,2.16,2.16s2.16-0.97,2.16-2.16
			S15.15,6.8,13.96,6.8L13.96,6.8z M21.05,13.24c-1.2,0-2.16,0.97-2.16,2.16c0,1.2,0.97,2.16,2.16,2.16c1.2,0,2.16-0.97,2.16-2.16
			C23.21,14.21,22.24,13.24,21.05,13.24L21.05,13.24z M28.14,9.97c-1.2,0-2.16,0.97-2.16,2.16c0,1.2,0.97,2.16,2.16,2.16
			c1.2,0,2.16-0.97,2.16-2.16C30.3,10.94,29.33,9.97,28.14,9.97L28.14,9.97z"/>
		<path class="st2" d="M8.81,14.2l3.35-3.3 M15.91,10.74l3.38,3.09 M23.18,14.48l2.54-1.24 M9.64,30.47h15.73 M13.54,29.68v-4.66
			 M21.47,29.68v-4.66"/>
	</g>
</g>
</svg>
